<svg width="69" height="42" viewBox="0 0 69 42" fill="none" xmlns="http://www.w3.org/2000/svg">
<g clip-path="url(#clip0_2406_8076)">
<path fill-rule="evenodd" clip-rule="evenodd" d="M33.672 0.313109C32.9147 0.485942 32.7205 0.598189 29.8208 2.53927C28.2968 3.55949 26.9506 4.48081 26.8294 4.58667C26.2808 5.06562 25.817 5.82595 25.6089 6.58786L25.5 6.98651V11.9179V16.8492L25.6079 17.2484C25.9388 18.4729 26.8277 19.4966 27.9555 19.9521C28.5854 20.2066 28.7036 20.2223 30.1366 20.2426L31.4856 20.2617L31.4986 17.0031L31.51 14.1429C31.511 13.8808 31.5719 13.6224 31.6881 13.3874V13.3874C31.9816 12.7936 32.5085 12.3931 33.1522 12.2745C33.5135 12.2079 35.4742 12.2079 35.8355 12.2745C36.4792 12.3931 37.0061 12.7936 37.2996 13.3874V13.3874C37.4158 13.6224 37.4767 13.8808 37.4777 14.1429L37.4891 17.0031L37.5021 20.2617L38.8511 20.2426C40.2841 20.2223 40.4023 20.2066 41.0322 19.9521C42.1609 19.4962 43.042 18.4808 43.3788 17.2479L43.4877 16.8492V11.9413C43.4877 7.26036 43.4835 7.01717 43.3978 6.68123C43.2708 6.18392 43.0789 5.74028 42.8263 5.36028C42.3965 4.7139 42.1671 4.53614 39.2548 2.59271C37.7533 1.59075 36.4218 0.718937 36.296 0.655346C36.1701 0.591755 35.8876 0.481621 35.668 0.410563C35.3274 0.300382 35.1722 0.27906 34.6113 0.265111C34.1681 0.254121 33.8619 0.26976 33.672 0.313109Z" fill="#AFB6C6"/>
</g>
<path d="M4.20131 30.624C5.08131 30.624 5.85331 30.796 6.51731 31.14C7.18931 31.484 7.70531 31.976 8.06531 32.616C8.43331 33.248 8.61731 33.984 8.61731 34.824C8.61731 35.664 8.43331 36.4 8.06531 37.032C7.70531 37.656 7.18931 38.14 6.51731 38.484C5.85331 38.828 5.08131 39 4.20131 39H1.27331V30.624H4.20131ZM4.14131 37.572C5.02131 37.572 5.70131 37.332 6.18131 36.852C6.66131 36.372 6.90131 35.696 6.90131 34.824C6.90131 33.952 6.66131 33.272 6.18131 32.784C5.70131 32.288 5.02131 32.04 4.14131 32.04H2.95331V37.572H4.14131ZM9.44287 35.652C9.44287 34.98 9.57487 34.384 9.83887 33.864C10.1109 33.344 10.4749 32.944 10.9309 32.664C11.3949 32.384 11.9109 32.244 12.4789 32.244C12.9749 32.244 13.4069 32.344 13.7749 32.544C14.1509 32.744 14.4509 32.996 14.6749 33.3V32.352H16.3669V39H14.6749V38.028C14.4589 38.34 14.1589 38.6 13.7749 38.808C13.3989 39.008 12.9629 39.108 12.4669 39.108C11.9069 39.108 11.3949 38.964 10.9309 38.676C10.4749 38.388 10.1109 37.984 9.83887 37.464C9.57487 36.936 9.44287 36.332 9.44287 35.652ZM14.6749 35.676C14.6749 35.268 14.5949 34.92 14.4349 34.632C14.2749 34.336 14.0589 34.112 13.7869 33.96C13.5149 33.8 13.2229 33.72 12.9109 33.72C12.5989 33.72 12.3109 33.796 12.0469 33.948C11.7829 34.1 11.5669 34.324 11.3989 34.62C11.2389 34.908 11.1589 35.252 11.1589 35.652C11.1589 36.052 11.2389 36.404 11.3989 36.708C11.5669 37.004 11.7829 37.232 12.0469 37.392C12.3189 37.552 12.6069 37.632 12.9109 37.632C13.2229 37.632 13.5149 37.556 13.7869 37.404C14.0589 37.244 14.2749 37.02 14.4349 36.732C14.5949 36.436 14.6749 36.084 14.6749 35.676ZM20.5517 39.108C20.0077 39.108 19.5197 39.012 19.0877 38.82C18.6557 38.62 18.3117 38.352 18.0557 38.016C17.8077 37.68 17.6717 37.308 17.6477 36.9H19.3397C19.3717 37.156 19.4957 37.368 19.7117 37.536C19.9357 37.704 20.2117 37.788 20.5397 37.788C20.8597 37.788 21.1077 37.724 21.2837 37.596C21.4677 37.468 21.5597 37.304 21.5597 37.104C21.5597 36.888 21.4477 36.728 21.2237 36.624C21.0077 36.512 20.6597 36.392 20.1797 36.264C19.6837 36.144 19.2757 36.02 18.9557 35.892C18.6437 35.764 18.3717 35.568 18.1397 35.304C17.9157 35.04 17.8037 34.684 17.8037 34.236C17.8037 33.868 17.9077 33.532 18.1157 33.228C18.3317 32.924 18.6357 32.684 19.0277 32.508C19.4277 32.332 19.8957 32.244 20.4317 32.244C21.2237 32.244 21.8557 32.444 22.3277 32.844C22.7997 33.236 23.0597 33.768 23.1077 34.44H21.4997C21.4757 34.176 21.3637 33.968 21.1637 33.816C20.9717 33.656 20.7117 33.576 20.3837 33.576C20.0797 33.576 19.8437 33.632 19.6757 33.744C19.5157 33.856 19.4357 34.012 19.4357 34.212C19.4357 34.436 19.5477 34.608 19.7717 34.728C19.9957 34.84 20.3437 34.956 20.8157 35.076C21.2957 35.196 21.6917 35.32 22.0037 35.448C22.3157 35.576 22.5837 35.776 22.8077 36.048C23.0397 36.312 23.1597 36.664 23.1677 37.104C23.1677 37.488 23.0597 37.832 22.8437 38.136C22.6357 38.44 22.3317 38.68 21.9317 38.856C21.5397 39.024 21.0797 39.108 20.5517 39.108ZM28.2908 32.256C28.7948 32.256 29.2428 32.368 29.6348 32.592C30.0268 32.808 30.3308 33.132 30.5468 33.564C30.7708 33.988 30.8828 34.5 30.8828 35.1V39H29.2028V35.328C29.2028 34.8 29.0708 34.396 28.8068 34.116C28.5428 33.828 28.1828 33.684 27.7268 33.684C27.2628 33.684 26.8948 33.828 26.6228 34.116C26.3588 34.396 26.2268 34.8 26.2268 35.328V39H24.5468V30.12H26.2268V33.18C26.4428 32.892 26.7308 32.668 27.0908 32.508C27.4508 32.34 27.8508 32.256 28.2908 32.256ZM34.1603 33.324C34.3763 33.004 34.6723 32.744 35.0483 32.544C35.4323 32.344 35.8683 32.244 36.3563 32.244C36.9243 32.244 37.4363 32.384 37.8923 32.664C38.3563 32.944 38.7203 33.344 38.9843 33.864C39.2563 34.376 39.3923 34.972 39.3923 35.652C39.3923 36.332 39.2563 36.936 38.9843 37.464C38.7203 37.984 38.3563 38.388 37.8923 38.676C37.4363 38.964 36.9243 39.108 36.3563 39.108C35.8603 39.108 35.4243 39.012 35.0483 38.82C34.6803 38.62 34.3843 38.364 34.1603 38.052V39H32.4803V30.12H34.1603V33.324ZM37.6763 35.652C37.6763 35.252 37.5923 34.908 37.4243 34.62C37.2643 34.324 37.0483 34.1 36.7763 33.948C36.5123 33.796 36.2243 33.72 35.9123 33.72C35.6083 33.72 35.3203 33.8 35.0483 33.96C34.7843 34.112 34.5683 34.336 34.4003 34.632C34.2403 34.928 34.1603 35.276 34.1603 35.676C34.1603 36.076 34.2403 36.424 34.4003 36.72C34.5683 37.016 34.7843 37.244 35.0483 37.404C35.3203 37.556 35.6083 37.632 35.9123 37.632C36.2243 37.632 36.5123 37.552 36.7763 37.392C37.0483 37.232 37.2643 37.004 37.4243 36.708C37.5923 36.412 37.6763 36.06 37.6763 35.652ZM43.5652 39.108C42.9252 39.108 42.3492 38.968 41.8372 38.688C41.3252 38.4 40.9212 37.996 40.6252 37.476C40.3372 36.956 40.1932 36.356 40.1932 35.676C40.1932 34.996 40.3412 34.396 40.6372 33.876C40.9412 33.356 41.3532 32.956 41.8732 32.676C42.3932 32.388 42.9732 32.244 43.6132 32.244C44.2532 32.244 44.8332 32.388 45.3532 32.676C45.8732 32.956 46.2812 33.356 46.5772 33.876C46.8812 34.396 47.0332 34.996 47.0332 35.676C47.0332 36.356 46.8772 36.956 46.5652 37.476C46.2612 37.996 45.8452 38.4 45.3172 38.688C44.7972 38.968 44.2132 39.108 43.5652 39.108ZM43.5652 37.644C43.8692 37.644 44.1532 37.572 44.4172 37.428C44.6892 37.276 44.9052 37.052 45.0652 36.756C45.2252 36.46 45.3052 36.1 45.3052 35.676C45.3052 35.044 45.1372 34.56 44.8012 34.224C44.4732 33.88 44.0692 33.708 43.5892 33.708C43.1092 33.708 42.7052 33.88 42.3772 34.224C42.0572 34.56 41.8972 35.044 41.8972 35.676C41.8972 36.308 42.0532 36.796 42.3652 37.14C42.6852 37.476 43.0852 37.644 43.5652 37.644ZM47.8335 35.652C47.8335 34.98 47.9655 34.384 48.2295 33.864C48.5015 33.344 48.8655 32.944 49.3215 32.664C49.7855 32.384 50.3015 32.244 50.8695 32.244C51.3655 32.244 51.7975 32.344 52.1655 32.544C52.5415 32.744 52.8415 32.996 53.0655 33.3V32.352H54.7575V39H53.0655V38.028C52.8495 38.34 52.5495 38.6 52.1655 38.808C51.7895 39.008 51.3535 39.108 50.8575 39.108C50.2975 39.108 49.7855 38.964 49.3215 38.676C48.8655 38.388 48.5015 37.984 48.2295 37.464C47.9655 36.936 47.8335 36.332 47.8335 35.652ZM53.0655 35.676C53.0655 35.268 52.9855 34.92 52.8255 34.632C52.6655 34.336 52.4495 34.112 52.1775 33.96C51.9055 33.8 51.6135 33.72 51.3015 33.72C50.9895 33.72 50.7015 33.796 50.4375 33.948C50.1735 34.1 49.9575 34.324 49.7895 34.62C49.6295 34.908 49.5495 35.252 49.5495 35.652C49.5495 36.052 49.6295 36.404 49.7895 36.708C49.9575 37.004 50.1735 37.232 50.4375 37.392C50.7095 37.552 50.9975 37.632 51.3015 37.632C51.6135 37.632 51.9055 37.556 52.1775 37.404C52.4495 37.244 52.6655 37.02 52.8255 36.732C52.9855 36.436 53.0655 36.084 53.0655 35.676ZM58.0783 33.384C58.2943 33.032 58.5743 32.756 58.9183 32.556C59.2703 32.356 59.6703 32.256 60.1183 32.256V34.02H59.6743C59.1463 34.02 58.7463 34.144 58.4743 34.392C58.2103 34.64 58.0783 35.072 58.0783 35.688V39H56.3983V32.352H58.0783V33.384ZM60.8179 35.652C60.8179 34.98 60.9499 34.384 61.2139 33.864C61.4859 33.344 61.8539 32.944 62.3179 32.664C62.7819 32.384 63.2979 32.244 63.8659 32.244C64.2979 32.244 64.7099 32.34 65.1019 32.532C65.4939 32.716 65.8059 32.964 66.0379 33.276V30.12H67.7419V39H66.0379V38.016C65.8299 38.344 65.5379 38.608 65.1619 38.808C64.7859 39.008 64.3499 39.108 63.8539 39.108C63.2939 39.108 62.7819 38.964 62.3179 38.676C61.8539 38.388 61.4859 37.984 61.2139 37.464C60.9499 36.936 60.8179 36.332 60.8179 35.652ZM66.0499 35.676C66.0499 35.268 65.9699 34.92 65.8099 34.632C65.6499 34.336 65.4339 34.112 65.1619 33.96C64.8899 33.8 64.5979 33.72 64.2859 33.72C63.9739 33.72 63.6859 33.796 63.4219 33.948C63.1579 34.1 62.9419 34.324 62.7739 34.62C62.6139 34.908 62.5339 35.252 62.5339 35.652C62.5339 36.052 62.6139 36.404 62.7739 36.708C62.9419 37.004 63.1579 37.232 63.4219 37.392C63.6939 37.552 63.9819 37.632 64.2859 37.632C64.5979 37.632 64.8899 37.556 65.1619 37.404C65.4339 37.244 65.6499 37.02 65.8099 36.732C65.9699 36.436 66.0499 36.084 66.0499 35.676Z" fill="#AFB6C6"/>
<defs>
<clipPath id="clip0_2406_8076">
<rect width="20" height="20" fill="white" transform="translate(24.5)"/>
</clipPath>
</defs>
</svg>
