<svg width="13" height="14" viewBox="0 0 13 14" fill="none" xmlns="http://www.w3.org/2000/svg">
<path fill-rule="evenodd" clip-rule="evenodd" d="M4.19176 3.27835C3.93608 3.54661 3.93608 3.98156 4.19176 4.24983L6.93975 7.13311L4.19176 10.0164C3.93608 10.2847 3.93608 10.7196 4.19176 10.9879C4.44744 11.2561 4.86198 11.2561 5.11765 10.9879L8.27425 7.67587C8.41592 7.52722 8.47909 7.32739 8.46376 7.13311C8.47909 6.93882 8.41592 6.739 8.27425 6.59035L5.11765 3.27835C4.86198 3.01008 4.44744 3.01008 4.19176 3.27835Z" fill="#AFB6C6"/>
<path d="M4.19176 4.24983L4.28224 4.16359L4.19176 4.24983ZM4.19176 3.27835L4.10127 3.19211V3.19211L4.19176 3.27835ZM6.93975 7.13311L7.03023 7.21935L7.11243 7.13311L7.03023 7.04687L6.93975 7.13311ZM4.19176 10.0164L4.28224 10.1026H4.28224L4.19176 10.0164ZM4.19176 10.9879L4.28225 10.9016H4.28224L4.19176 10.9879ZM5.11765 10.9879L5.20814 11.0741L5.11765 10.9879ZM8.27425 7.67587L8.36473 7.76211H8.36473L8.27425 7.67587ZM8.46376 7.13311L8.33915 7.12327L8.33837 7.13311L8.33915 7.14294L8.46376 7.13311ZM8.27425 6.59035L8.36473 6.50411L8.27425 6.59035ZM5.11765 3.27835L5.20814 3.19211V3.19211L5.11765 3.27835ZM4.28224 4.16359C4.07258 3.9436 4.07259 3.58457 4.28224 3.36459L4.10127 3.19211C3.79958 3.50866 3.79957 4.01952 4.10127 4.33607L4.28224 4.16359ZM7.03023 7.04687L4.28224 4.16359L4.10127 4.33607L6.84926 7.21935L7.03023 7.04687ZM6.84926 7.04687L4.10127 9.93015L4.28224 10.1026L7.03023 7.21935L6.84926 7.04687ZM4.10127 9.93015C3.79957 10.2467 3.79958 10.7576 4.10127 11.0741L4.28224 10.9016C4.07259 10.6816 4.07258 10.3226 4.28224 10.1026L4.10127 9.93015ZM4.10127 11.0741C4.40621 11.3941 4.90321 11.394 5.20814 11.0741L5.02717 10.9016C4.82074 11.1182 4.48867 11.1182 4.28225 10.9016L4.10127 11.0741ZM5.20814 11.0741L8.36473 7.76211L8.18376 7.58963L5.02717 10.9016L5.20814 11.0741ZM8.36473 7.76211C8.53257 7.586 8.6063 7.35052 8.58837 7.12327L8.33915 7.14294C8.35188 7.30427 8.29927 7.46843 8.18376 7.58963L8.36473 7.76211ZM8.18376 6.67659C8.29927 6.79778 8.35188 6.96194 8.33915 7.12327L8.58837 7.14294C8.6063 6.9157 8.53257 6.68021 8.36473 6.50411L8.18376 6.67659ZM5.02717 3.36459L8.18376 6.67659L8.36473 6.50411L5.20814 3.19211L5.02717 3.36459ZM4.28224 3.36459C4.48867 3.148 4.82074 3.148 5.02717 3.36459L5.20814 3.19211C4.90321 2.87216 4.40621 2.87216 4.10127 3.19211L4.28224 3.36459Z" fill="#AFB6C6"/>
</svg>
