<svg width="14" height="16" viewBox="0 0 14 16" fill="none" xmlns="http://www.w3.org/2000/svg">
<path fill-rule="evenodd" clip-rule="evenodd" d="M4.5492 1.43379C3.92404 1.65451 2.96241 2.20953 2.60681 2.55488C2.34319 2.81091 2.28669 3.147 2.43365 3.58513C2.54579 3.91941 2.55493 4.39487 2.45529 4.70972C2.24098 5.38699 1.67085 5.86975 0.957422 5.978C0.582683 6.03485 0.344269 6.19013 0.201256 6.47046C0.070131 6.72751 -0.0235755 7.58217 0.00522578 8.25877C0.0407454 9.09407 0.119409 9.38576 0.368046 9.60466C0.516727 9.73552 0.642973 9.78436 1.00124 9.84965C1.40113 9.9225 1.6483 10.0553 1.95057 10.36C2.33734 10.7498 2.48865 11.1175 2.48629 11.6618C2.48515 11.924 2.47349 11.9867 2.37228 12.2752C2.12236 12.9874 2.25421 13.2471 3.1774 13.8606C3.49124 14.0691 4.10918 14.3894 4.45643 14.5235C4.8142 14.6617 5.01931 14.6649 5.27665 14.5363C5.39227 14.4785 5.49652 14.3977 5.56613 14.3118C5.90543 13.893 6.13731 13.7182 6.52846 13.586C7.24873 13.3428 8.02934 13.5758 8.52913 14.1833C8.80847 14.5228 9.15788 14.6434 9.52175 14.5259C9.80906 14.4331 10.4413 14.1031 10.835 13.8404C11.3348 13.507 11.5902 13.2751 11.6751 13.0778C11.7829 12.8272 11.7834 12.6927 11.6779 12.3774C11.56 12.0255 11.5296 11.5943 11.6011 11.2898C11.7595 10.6155 12.2746 10.0976 12.9487 9.93494C13.4313 9.81854 13.4508 9.81045 13.6164 9.65914C13.7324 9.5531 13.7941 9.46781 13.8362 9.35523C14.059 8.7597 14.0532 7.04575 13.8267 6.54746C13.7524 6.38417 13.5957 6.21151 13.4563 6.13942C13.4069 6.11386 13.2757 6.07405 13.1648 6.05091C12.3897 5.88929 11.8481 5.39015 11.6619 4.66591C11.5935 4.40012 11.6159 3.90183 11.7071 3.65815C11.7988 3.41296 11.8007 3.12252 11.7119 2.9279C11.6286 2.74539 11.5536 2.66536 11.2292 2.41318C10.5877 1.91439 9.5871 1.40712 9.17681 1.37274C8.87159 1.34718 8.7454 1.40911 8.36301 1.77211C8.113 2.00944 7.98068 2.11097 7.81438 2.19317C7.294 2.45028 6.72464 2.45008 6.1957 2.19256C6.01535 2.10475 5.89848 2.01566 5.6431 1.77135C5.39537 1.53433 5.28597 1.45018 5.17784 1.41332C4.98359 1.34713 4.77547 1.3539 4.5492 1.43379ZM7.55938 5.72779C8.1673 5.89306 8.63321 6.22588 8.96229 6.73002C9.66158 7.80122 9.35073 9.24859 8.2698 9.95422C7.87207 10.2139 7.51273 10.3168 7.00394 10.3168C6.34379 10.3168 5.81176 10.0995 5.35602 9.6438C4.90031 9.18806 4.68301 8.65603 4.68301 7.99588C4.68301 7.48709 4.78595 7.12775 5.0456 6.73002C5.39703 6.19168 5.94358 5.82506 6.5804 5.70051C6.82915 5.65184 7.33151 5.66583 7.55938 5.72779Z" fill="#00A0EC"/>
</svg>
