<svg width="35" height="42" viewBox="0 0 35 42" fill="none" xmlns="http://www.w3.org/2000/svg">
<path fill-rule="evenodd" clip-rule="evenodd" d="M16.9283 1.54348C16.5787 1.60195 16.121 1.76751 15.7779 1.95961C15.3373 2.20622 14.7348 2.80074 14.4969 3.22368C13.7103 4.62164 13.9344 6.30665 15.056 7.42826C15.722 8.09432 16.5523 8.43698 17.5 8.43698C18.4477 8.43698 19.278 8.09432 19.944 7.42826C21.0656 6.30665 21.2897 4.62164 20.5031 3.22368C20.2652 2.80074 19.6627 2.20622 19.2221 1.95961C18.5254 1.56959 17.6844 1.41702 16.9283 1.54348ZM10.7374 4.82845C9.96391 5.03107 9.29898 5.61323 8.99479 6.35413C8.84982 6.70708 8.80568 6.94195 8.80614 7.35722C8.80665 7.77671 8.88243 8.10579 9.06646 8.4872C9.38798 9.1537 10.035 9.6764 10.7681 9.86195C11.1 9.94595 11.6886 9.94399 12.0205 9.85777C12.5996 9.70732 13.2112 9.27655 13.5428 8.78567C14.0714 8.00329 14.1231 6.96466 13.6762 6.10755C13.477 5.72536 13.0016 5.24994 12.6194 5.05068C12.0494 4.75354 11.3421 4.67002 10.7374 4.82845ZM22.9488 4.82845C22.2857 5.00215 21.6316 5.51698 21.3238 6.10755C20.9662 6.79342 20.9224 7.59475 21.2038 8.30239C21.4986 9.04376 22.1953 9.65405 22.9795 9.85777C23.3114 9.94399 23.9 9.94595 24.2319 9.86195C25.156 9.62806 25.8919 8.89209 26.1296 7.96387C26.203 7.67714 26.2143 7.09268 26.152 6.80422C25.9468 5.85444 25.1887 5.06739 24.2472 4.82661C23.8563 4.72665 23.3345 4.72736 22.9488 4.82845ZM15.1321 9.2299C14.5379 9.36493 14.1456 9.58399 13.7 10.0296C13.329 10.4006 13.1288 10.7194 12.9645 11.2008L12.862 11.5009L12.8517 14.7886C12.8415 18.0202 12.8426 18.0784 12.9198 18.2038C12.963 18.274 13.0557 18.3663 13.1259 18.4091C13.2511 18.4855 13.3315 18.4869 17.5 18.4869C21.6685 18.4869 21.7489 18.4855 21.8741 18.4091C21.9443 18.3663 22.037 18.274 22.0802 18.2038C22.1574 18.0784 22.1585 18.0202 22.1483 14.7886L22.138 11.5009L22.0355 11.2008C21.8712 10.7194 21.671 10.4006 21.3 10.0296C20.9289 9.65851 20.6098 9.4582 20.1288 9.29436L19.8288 9.19217L17.5978 9.18434C15.8326 9.1782 15.3179 9.18771 15.1321 9.2299ZM9.99143 10.7015C8.87178 10.8468 7.94434 11.6474 7.5919 12.7729C7.50039 13.0652 7.5 13.0752 7.5 15.1017V17.1369L7.59072 17.3616C7.77444 17.8165 8.15194 18.1938 8.60607 18.3766C8.8247 18.4645 8.87018 18.4673 10.3061 18.4793L11.7815 18.4915L11.7359 18.3622C11.6747 18.1882 11.6466 12.2108 11.7045 11.677C11.7267 11.4725 11.7738 11.1995 11.8092 11.0704C11.8445 10.9412 11.8822 10.7959 11.8928 10.7475L11.9123 10.6594L11.076 10.6644C10.616 10.6671 10.128 10.6838 9.99143 10.7015ZM23.1072 10.7475C23.1178 10.7959 23.1555 10.9412 23.1908 11.0704C23.2262 11.1995 23.2733 11.4725 23.2955 11.677C23.3534 12.2108 23.3253 18.1882 23.2641 18.3622L23.2185 18.4915L24.6939 18.4793C26.1298 18.4673 26.1753 18.4645 26.3939 18.3766C26.8481 18.1938 27.2256 17.8165 27.4093 17.3616L27.5 17.1369V15.1017C27.5 13.0707 27.4998 13.0658 27.4075 12.7729C27.1108 11.8319 26.4494 11.1371 25.5631 10.8357C25.1663 10.7007 24.7685 10.6594 23.8663 10.6594H23.0877L23.1072 10.7475Z" fill="#AFB6C6"/>
<path d="M3.13244 30.624V35.808C3.13244 36.376 3.28044 36.812 3.57644 37.116C3.87244 37.412 4.28844 37.56 4.82444 37.56C5.36844 37.56 5.78844 37.412 6.08444 37.116C6.38044 36.812 6.52844 36.376 6.52844 35.808V30.624H8.22044V35.796C8.22044 36.508 8.06444 37.112 7.75244 37.608C7.44844 38.096 7.03644 38.464 6.51644 38.712C6.00444 38.96 5.43244 39.084 4.80044 39.084C4.17644 39.084 3.60844 38.96 3.09644 38.712C2.59244 38.464 2.19244 38.096 1.89644 37.608C1.60044 37.112 1.45244 36.508 1.45244 35.796V30.624H3.13244ZM12.3876 39.108C11.8436 39.108 11.3556 39.012 10.9236 38.82C10.4916 38.62 10.1476 38.352 9.89163 38.016C9.64363 37.68 9.50763 37.308 9.48363 36.9H11.1756C11.2076 37.156 11.3316 37.368 11.5476 37.536C11.7716 37.704 12.0476 37.788 12.3756 37.788C12.6956 37.788 12.9436 37.724 13.1196 37.596C13.3036 37.468 13.3956 37.304 13.3956 37.104C13.3956 36.888 13.2836 36.728 13.0596 36.624C12.8436 36.512 12.4956 36.392 12.0156 36.264C11.5196 36.144 11.1116 36.02 10.7916 35.892C10.4796 35.764 10.2076 35.568 9.97563 35.304C9.75163 35.04 9.63963 34.684 9.63963 34.236C9.63963 33.868 9.74363 33.532 9.95163 33.228C10.1676 32.924 10.4716 32.684 10.8636 32.508C11.2636 32.332 11.7316 32.244 12.2676 32.244C13.0596 32.244 13.6916 32.444 14.1636 32.844C14.6356 33.236 14.8956 33.768 14.9436 34.44H13.3356C13.3116 34.176 13.1996 33.968 12.9996 33.816C12.8076 33.656 12.5476 33.576 12.2196 33.576C11.9156 33.576 11.6796 33.632 11.5116 33.744C11.3516 33.856 11.2716 34.012 11.2716 34.212C11.2716 34.436 11.3836 34.608 11.6076 34.728C11.8316 34.84 12.1796 34.956 12.6516 35.076C13.1316 35.196 13.5276 35.32 13.8396 35.448C14.1516 35.576 14.4196 35.776 14.6436 36.048C14.8756 36.312 14.9956 36.664 15.0036 37.104C15.0036 37.488 14.8956 37.832 14.6796 38.136C14.4716 38.44 14.1676 38.68 13.7676 38.856C13.3756 39.024 12.9156 39.108 12.3876 39.108ZM22.5627 35.532C22.5627 35.772 22.5467 35.988 22.5147 36.18H17.6547C17.6947 36.66 17.8627 37.036 18.1587 37.308C18.4547 37.58 18.8187 37.716 19.2507 37.716C19.8747 37.716 20.3187 37.448 20.5827 36.912H22.3947C22.2027 37.552 21.8347 38.08 21.2907 38.496C20.7467 38.904 20.0787 39.108 19.2867 39.108C18.6467 39.108 18.0707 38.968 17.5587 38.688C17.0547 38.4 16.6587 37.996 16.3707 37.476C16.0907 36.956 15.9507 36.356 15.9507 35.676C15.9507 34.988 16.0907 34.384 16.3707 33.864C16.6507 33.344 17.0427 32.944 17.5467 32.664C18.0507 32.384 18.6307 32.244 19.2867 32.244C19.9187 32.244 20.4827 32.38 20.9787 32.652C21.4827 32.924 21.8707 33.312 22.1427 33.816C22.4227 34.312 22.5627 34.884 22.5627 35.532ZM20.8227 35.052C20.8147 34.62 20.6587 34.276 20.3547 34.02C20.0507 33.756 19.6787 33.624 19.2387 33.624C18.8227 33.624 18.4707 33.752 18.1827 34.008C17.9027 34.256 17.7307 34.604 17.6667 35.052H20.8227ZM25.4689 33.384C25.6849 33.032 25.9649 32.756 26.3089 32.556C26.6609 32.356 27.0609 32.256 27.5089 32.256V34.02H27.0649C26.5369 34.02 26.1369 34.144 25.8649 34.392C25.6009 34.64 25.4689 35.072 25.4689 35.688V39H23.7889V32.352H25.4689V33.384ZM31.1845 39.108C30.6405 39.108 30.1525 39.012 29.7205 38.82C29.2885 38.62 28.9445 38.352 28.6885 38.016C28.4405 37.68 28.3045 37.308 28.2805 36.9H29.9725C30.0045 37.156 30.1285 37.368 30.3445 37.536C30.5685 37.704 30.8445 37.788 31.1725 37.788C31.4925 37.788 31.7405 37.724 31.9165 37.596C32.1005 37.468 32.1925 37.304 32.1925 37.104C32.1925 36.888 32.0805 36.728 31.8565 36.624C31.6405 36.512 31.2925 36.392 30.8125 36.264C30.3165 36.144 29.9085 36.02 29.5885 35.892C29.2765 35.764 29.0045 35.568 28.7725 35.304C28.5485 35.04 28.4365 34.684 28.4365 34.236C28.4365 33.868 28.5405 33.532 28.7485 33.228C28.9645 32.924 29.2685 32.684 29.6605 32.508C30.0605 32.332 30.5285 32.244 31.0645 32.244C31.8565 32.244 32.4885 32.444 32.9605 32.844C33.4325 33.236 33.6925 33.768 33.7405 34.44H32.1325C32.1085 34.176 31.9965 33.968 31.7965 33.816C31.6045 33.656 31.3445 33.576 31.0165 33.576C30.7125 33.576 30.4765 33.632 30.3085 33.744C30.1485 33.856 30.0685 34.012 30.0685 34.212C30.0685 34.436 30.1805 34.608 30.4045 34.728C30.6285 34.84 30.9765 34.956 31.4485 35.076C31.9285 35.196 32.3245 35.32 32.6365 35.448C32.9485 35.576 33.2165 35.776 33.4405 36.048C33.6725 36.312 33.7925 36.664 33.8005 37.104C33.8005 37.488 33.6925 37.832 33.4765 38.136C33.2685 38.44 32.9645 38.68 32.5645 38.856C32.1725 39.024 31.7125 39.108 31.1845 39.108Z" fill="#AFB6C6"/>
</svg>
