<svg width="69" height="57" viewBox="0 0 69 57" fill="none" xmlns="http://www.w3.org/2000/svg">
<path fill-rule="evenodd" clip-rule="evenodd" d="M28.6211 0.04809C28.3402 0.172978 28.25 0.380278 28.25 0.901166V1.24336L27.3613 1.24402C26.3575 1.2448 26.1095 1.2804 25.6875 1.4843C25.3298 1.65721 24.9168 2.06619 24.745 2.41772C24.5329 2.85174 24.5012 3.07053 24.5006 4.1057L24.5 5.03376H34.5H44.5L44.4994 4.1057C44.4988 3.07053 44.4671 2.85174 44.255 2.41772C44.0851 2.07013 43.6704 1.65784 43.3169 1.48528C42.9918 1.32655 42.6231 1.24492 42.227 1.24402L41.9267 1.24336L41.9145 2.24957C41.9013 3.34656 41.8926 3.39076 41.6576 3.56578C41.5077 3.67746 41.1924 3.69071 41.0353 3.59196C40.7665 3.42304 40.7716 3.45414 40.75 1.84388C40.7313 0.451788 40.727 0.384615 40.6499 0.281415C40.376 -0.0853167 39.9051 -0.0943824 39.6668 0.262463C39.5882 0.380122 39.5781 0.443464 39.5781 0.819301V1.24336H38.8555H38.1328L38.1327 2.24957C38.1325 3.18471 38.127 3.26478 38.0549 3.38314C37.8169 3.77359 37.256 3.75628 37.0488 3.35207C36.9627 3.18397 36.9609 3.15415 36.9609 1.81997C36.9609 0.316076 36.9549 0.272896 36.7212 0.106196C36.5473 -0.0179491 36.2346 -0.0243185 36.0775 0.0930278C35.8436 0.267738 35.8096 0.354722 35.7954 0.816253L35.7821 1.24336H35.0825H34.3828V2.21198C34.3828 3.13965 34.3791 3.18787 34.2949 3.35207C34.0936 3.74475 33.5427 3.77464 33.3009 3.406C33.2372 3.30874 33.2286 3.16017 33.2109 1.84388C33.1922 0.451788 33.1879 0.384615 33.1109 0.281415C32.9634 0.0840011 32.8308 0.0124523 32.6124 0.0124523C32.4615 0.0124523 32.3768 0.0362498 32.2788 0.106196C32.0887 0.241791 32.0391 0.396182 32.0391 0.851343V1.24336H31.3164H30.5938L30.5936 2.24957C30.5935 3.18471 30.588 3.26478 30.5158 3.38314C30.35 3.65527 30.0158 3.74147 29.7362 3.58426C29.4413 3.41846 29.4438 3.43261 29.4219 1.80297C29.4032 0.411344 29.3989 0.3455 29.3214 0.239916C29.16 0.0199941 28.8656 -0.0606595 28.6211 0.04809ZM24.5 12.1394C24.5 17.9302 24.5019 18.0801 24.5775 18.3761C24.6776 18.7674 24.8474 19.0625 25.1423 19.3575C25.4372 19.6525 25.7322 19.8224 26.1233 19.9224C26.421 19.9986 26.5743 20 34.5 20C42.4159 20 42.5793 19.9985 42.8756 19.9227C43.2836 19.8183 43.5316 19.6771 43.838 19.3748C44.151 19.0659 44.3198 18.7774 44.4225 18.3761C44.4981 18.0801 44.5 17.9302 44.5 12.1394V6.20605H34.5H24.5V12.1394ZM30.7113 8.24779C30.7823 8.29617 30.8772 8.38534 30.9222 8.44602C31.0016 8.55329 31.0039 8.59647 31.0039 9.99646C31.0039 11.3964 31.0016 11.4396 30.9222 11.5469C30.8772 11.6076 30.7823 11.6967 30.7113 11.7451C30.5833 11.8323 30.5703 11.833 29.168 11.833C27.7657 11.833 27.7527 11.8323 27.6246 11.7451C27.5536 11.6967 27.4587 11.6076 27.4138 11.5469C27.3343 11.4396 27.332 11.3964 27.332 9.99646C27.332 8.59647 27.3343 8.55329 27.4138 8.44602C27.4587 8.38534 27.5536 8.29617 27.6246 8.24779C27.7527 8.16061 27.7657 8.15987 29.168 8.15987C30.5703 8.15987 30.5833 8.16061 30.7113 8.24779ZM41.3754 8.24779C41.4464 8.29617 41.5413 8.38534 41.5862 8.44602C41.6657 8.55329 41.668 8.59647 41.668 9.99646C41.668 11.3964 41.6657 11.4396 41.5862 11.5469C41.5413 11.6076 41.4464 11.6967 41.3754 11.7451C41.2473 11.8323 41.2343 11.833 39.832 11.833C38.4297 11.833 38.4167 11.8323 38.2887 11.7451C38.2177 11.6967 38.1228 11.6076 38.0778 11.5469C37.9984 11.4396 37.9961 11.3964 37.9961 9.99646C37.9961 8.59647 37.9984 8.55329 38.0778 8.44602C38.1228 8.38534 38.2177 8.29617 38.2887 8.24779C38.4167 8.16061 38.4297 8.15987 39.832 8.15987C41.2343 8.15987 41.2473 8.16061 41.3754 8.24779ZM36.1406 8.62464C36.3875 8.80146 36.4729 9.08148 36.3597 9.34318C36.3298 9.41234 35.8684 9.90205 35.3343 10.4314C34.2678 11.4885 34.2038 11.5337 33.9011 11.443C33.7796 11.4066 33.6193 11.2748 33.2248 10.8868C32.9405 10.6071 32.6804 10.3205 32.6469 10.2499C32.4724 9.88208 32.7049 9.46603 33.1104 9.42028C33.3325 9.39527 33.4813 9.47522 33.807 9.79467L34.071 10.0536L34.8046 9.32048C35.2546 8.87079 35.583 8.57353 35.6539 8.55157C35.8048 8.50491 36.0182 8.53696 36.1406 8.62464ZM28.4844 9.99646V10.6608H29.168H29.8516V9.99646V9.33216H29.168H28.4844V9.99646ZM39.1484 9.99646V10.6608H39.832H40.5156V9.99646V9.33216H39.832H39.1484V9.99646ZM30.7096 13.2607C30.784 13.3045 30.8807 13.4012 30.9244 13.4756C31.0004 13.605 31.0039 13.6733 31.0039 15.0178C31.0039 16.3587 31.0002 16.4309 30.9249 16.5613C30.8781 16.6423 30.7752 16.7339 30.6725 16.786C30.5027 16.872 30.4709 16.8739 29.168 16.8739C27.8652 16.8739 27.8332 16.872 27.6626 16.786C27.5352 16.7217 27.4646 16.6511 27.4004 16.5237C27.3143 16.353 27.3125 16.3217 27.3134 15.0193C27.3146 13.0345 27.1862 13.1585 29.2266 13.1722C30.5028 13.1807 30.5814 13.1854 30.7096 13.2607ZM36.0499 13.2629C36.1105 13.3079 36.1997 13.4028 36.248 13.4739C36.3352 13.602 36.3359 13.615 36.3359 15.0178C36.3359 16.4206 36.3352 16.4336 36.248 16.5617C36.1997 16.6327 36.1105 16.7276 36.0499 16.7726C35.9427 16.8521 35.8995 16.8544 34.5 16.8544C33.1005 16.8544 33.0573 16.8521 32.9501 16.7726C32.8895 16.7276 32.8003 16.6327 32.752 16.5617C32.6648 16.4336 32.6641 16.4201 32.6641 15.0296C32.6641 13.5233 32.6648 13.5175 32.8701 13.3257C32.923 13.2763 33.017 13.2202 33.0789 13.2011C33.1408 13.1821 33.8098 13.1698 34.5655 13.1738C35.8927 13.1809 35.9435 13.184 36.0499 13.2629ZM41.375 13.2602C41.456 13.307 41.5476 13.41 41.5996 13.5127C41.6856 13.6825 41.6875 13.7143 41.6875 15.0178C41.6875 16.321 41.6856 16.353 41.5996 16.5237C41.5354 16.6511 41.4648 16.7217 41.3374 16.786C41.1668 16.872 41.1348 16.8739 39.832 16.8739C37.8712 16.8739 38.0012 16.9982 37.9844 15.1073C37.9721 13.7197 37.9871 13.5566 38.1439 13.3756C38.3177 13.175 38.4261 13.1623 39.8906 13.1722C41.1632 13.1807 41.2459 13.1856 41.375 13.2602ZM28.502 14.3834C28.4912 14.4117 28.4871 14.7154 28.4931 15.0584L28.5039 15.6821H29.168H29.832V15.0178V14.3535L29.1769 14.3428C28.6639 14.3344 28.5174 14.3432 28.502 14.3834ZM33.8359 15.0178V15.7016H34.5H35.1641V15.0178V14.3339H34.5H33.8359V15.0178ZM39.1661 14.3834C39.1552 14.4117 39.1512 14.7154 39.1572 15.0584L39.168 15.6821H39.832H40.4961V15.0178V14.3535L39.8409 14.3428C39.328 14.3344 39.1815 14.3432 39.1661 14.3834Z" fill="#AFB6C6"/>
<path d="M15.0551 30.624L11.9831 39H9.94313L6.87113 30.624H8.67113L10.9751 37.284L13.2671 30.624H15.0551ZM15.6304 35.652C15.6304 34.98 15.7624 34.384 16.0264 33.864C16.2984 33.344 16.6624 32.944 17.1184 32.664C17.5824 32.384 18.0984 32.244 18.6664 32.244C19.1624 32.244 19.5944 32.344 19.9624 32.544C20.3384 32.744 20.6384 32.996 20.8624 33.3V32.352H22.5544V39H20.8624V38.028C20.6464 38.34 20.3464 38.6 19.9624 38.808C19.5864 39.008 19.1504 39.108 18.6544 39.108C18.0944 39.108 17.5824 38.964 17.1184 38.676C16.6624 38.388 16.2984 37.984 16.0264 37.464C15.7624 36.936 15.6304 36.332 15.6304 35.652ZM20.8624 35.676C20.8624 35.268 20.7824 34.92 20.6224 34.632C20.4624 34.336 20.2464 34.112 19.9744 33.96C19.7024 33.8 19.4104 33.72 19.0984 33.72C18.7864 33.72 18.4984 33.796 18.2344 33.948C17.9704 34.1 17.7544 34.324 17.5864 34.62C17.4264 34.908 17.3464 35.252 17.3464 35.652C17.3464 36.052 17.4264 36.404 17.5864 36.708C17.7544 37.004 17.9704 37.232 18.2344 37.392C18.5064 37.552 18.7944 37.632 19.0984 37.632C19.4104 37.632 19.7024 37.556 19.9744 37.404C20.2464 37.244 20.4624 37.02 20.6224 36.732C20.7824 36.436 20.8624 36.084 20.8624 35.676ZM23.7632 35.676C23.7632 34.988 23.9032 34.388 24.1832 33.876C24.4632 33.356 24.8512 32.956 25.3472 32.676C25.8432 32.388 26.4112 32.244 27.0512 32.244C27.8752 32.244 28.5552 32.452 29.0912 32.868C29.6352 33.276 29.9992 33.852 30.1832 34.596H28.3712C28.2752 34.308 28.1112 34.084 27.8792 33.924C27.6552 33.756 27.3752 33.672 27.0392 33.672C26.5592 33.672 26.1792 33.848 25.8992 34.2C25.6192 34.544 25.4792 35.036 25.4792 35.676C25.4792 36.308 25.6192 36.8 25.8992 37.152C26.1792 37.496 26.5592 37.668 27.0392 37.668C27.7192 37.668 28.1632 37.364 28.3712 36.756H30.1832C29.9992 37.476 29.6352 38.048 29.0912 38.472C28.5472 38.896 27.8672 39.108 27.0512 39.108C26.4112 39.108 25.8432 38.968 25.3472 38.688C24.8512 38.4 24.4632 38 24.1832 37.488C23.9032 36.968 23.7632 36.364 23.7632 35.676ZM30.9819 35.652C30.9819 34.98 31.1139 34.384 31.3779 33.864C31.6499 33.344 32.0139 32.944 32.4699 32.664C32.9339 32.384 33.4499 32.244 34.0179 32.244C34.5139 32.244 34.9459 32.344 35.3139 32.544C35.6899 32.744 35.9899 32.996 36.2139 33.3V32.352H37.9059V39H36.2139V38.028C35.9979 38.34 35.6979 38.6 35.3139 38.808C34.9379 39.008 34.5019 39.108 34.0059 39.108C33.4459 39.108 32.9339 38.964 32.4699 38.676C32.0139 38.388 31.6499 37.984 31.3779 37.464C31.1139 36.936 30.9819 36.332 30.9819 35.652ZM36.2139 35.676C36.2139 35.268 36.1339 34.92 35.9739 34.632C35.8139 34.336 35.5979 34.112 35.3259 33.96C35.0539 33.8 34.7619 33.72 34.4499 33.72C34.1379 33.72 33.8499 33.796 33.5859 33.948C33.3219 34.1 33.1059 34.324 32.9379 34.62C32.7779 34.908 32.6979 35.252 32.6979 35.652C32.6979 36.052 32.7779 36.404 32.9379 36.708C33.1059 37.004 33.3219 37.232 33.5859 37.392C33.8579 37.552 34.1459 37.632 34.4499 37.632C34.7619 37.632 35.0539 37.556 35.3259 37.404C35.5979 37.244 35.8139 37.02 35.9739 36.732C36.1339 36.436 36.2139 36.084 36.2139 35.676ZM41.5028 33.732V36.948C41.5028 37.172 41.5548 37.336 41.6588 37.44C41.7708 37.536 41.9548 37.584 42.2108 37.584H42.9908V39H41.9348C40.5188 39 39.8108 38.312 39.8108 36.936V33.732H39.0188V32.352H39.8108V30.708H41.5028V32.352H42.9908V33.732H41.5028ZM45.0511 31.56C44.7551 31.56 44.5071 31.468 44.3071 31.284C44.1151 31.092 44.0191 30.856 44.0191 30.576C44.0191 30.296 44.1151 30.064 44.3071 29.88C44.5071 29.688 44.7551 29.592 45.0511 29.592C45.3471 29.592 45.5911 29.688 45.7831 29.88C45.9831 30.064 46.0831 30.296 46.0831 30.576C46.0831 30.856 45.9831 31.092 45.7831 31.284C45.5911 31.468 45.3471 31.56 45.0511 31.56ZM45.8791 32.352V39H44.1991V32.352H45.8791ZM50.4909 39.108C49.8509 39.108 49.2749 38.968 48.7629 38.688C48.2509 38.4 47.8469 37.996 47.5509 37.476C47.2629 36.956 47.1189 36.356 47.1189 35.676C47.1189 34.996 47.2669 34.396 47.5629 33.876C47.8669 33.356 48.2789 32.956 48.7989 32.676C49.3189 32.388 49.8989 32.244 50.5389 32.244C51.1789 32.244 51.7589 32.388 52.2789 32.676C52.7989 32.956 53.2069 33.356 53.5029 33.876C53.8069 34.396 53.9589 34.996 53.9589 35.676C53.9589 36.356 53.8029 36.956 53.4909 37.476C53.1869 37.996 52.7709 38.4 52.2429 38.688C51.7229 38.968 51.1389 39.108 50.4909 39.108ZM50.4909 37.644C50.7949 37.644 51.0789 37.572 51.3429 37.428C51.6149 37.276 51.8309 37.052 51.9909 36.756C52.1509 36.46 52.2309 36.1 52.2309 35.676C52.2309 35.044 52.0629 34.56 51.7269 34.224C51.3989 33.88 50.9949 33.708 50.5149 33.708C50.0349 33.708 49.6309 33.88 49.3029 34.224C48.9829 34.56 48.8229 35.044 48.8229 35.676C48.8229 36.308 48.9789 36.796 49.2909 37.14C49.6109 37.476 50.0109 37.644 50.4909 37.644ZM58.8753 32.256C59.6673 32.256 60.3073 32.508 60.7953 33.012C61.2833 33.508 61.5273 34.204 61.5273 35.1V39H59.8473V35.328C59.8473 34.8 59.7153 34.396 59.4513 34.116C59.1873 33.828 58.8273 33.684 58.3713 33.684C57.9073 33.684 57.5393 33.828 57.2673 34.116C57.0033 34.396 56.8713 34.8 56.8713 35.328V39H55.1913V32.352H56.8713V33.18C57.0953 32.892 57.3793 32.668 57.7233 32.508C58.0753 32.34 58.4593 32.256 58.8753 32.256ZM16.7686 44.624V53H15.0886V47.552L12.8446 53H11.5726L9.31659 47.552V53H7.63659V44.624H9.54459L12.2086 50.852L14.8726 44.624H16.7686ZM17.9976 49.652C17.9976 48.98 18.1296 48.384 18.3936 47.864C18.6656 47.344 19.0296 46.944 19.4856 46.664C19.9496 46.384 20.4656 46.244 21.0336 46.244C21.5296 46.244 21.9616 46.344 22.3296 46.544C22.7056 46.744 23.0056 46.996 23.2296 47.3V46.352H24.9216V53H23.2296V52.028C23.0136 52.34 22.7136 52.6 22.3296 52.808C21.9536 53.008 21.5176 53.108 21.0216 53.108C20.4616 53.108 19.9496 52.964 19.4856 52.676C19.0296 52.388 18.6656 51.984 18.3936 51.464C18.1296 50.936 17.9976 50.332 17.9976 49.652ZM23.2296 49.676C23.2296 49.268 23.1496 48.92 22.9896 48.632C22.8296 48.336 22.6136 48.112 22.3416 47.96C22.0696 47.8 21.7776 47.72 21.4656 47.72C21.1536 47.72 20.8656 47.796 20.6016 47.948C20.3376 48.1 20.1216 48.324 19.9536 48.62C19.7936 48.908 19.7136 49.252 19.7136 49.652C19.7136 50.052 19.7936 50.404 19.9536 50.708C20.1216 51.004 20.3376 51.232 20.6016 51.392C20.8736 51.552 21.1616 51.632 21.4656 51.632C21.7776 51.632 22.0696 51.556 22.3416 51.404C22.6136 51.244 22.8296 51.02 22.9896 50.732C23.1496 50.436 23.2296 50.084 23.2296 49.676ZM30.2464 46.256C31.0384 46.256 31.6784 46.508 32.1664 47.012C32.6544 47.508 32.8984 48.204 32.8984 49.1V53H31.2184V49.328C31.2184 48.8 31.0864 48.396 30.8224 48.116C30.5584 47.828 30.1984 47.684 29.7424 47.684C29.2784 47.684 28.9104 47.828 28.6384 48.116C28.3744 48.396 28.2424 48.8 28.2424 49.328V53H26.5624V46.352H28.2424V47.18C28.4664 46.892 28.7504 46.668 29.0944 46.508C29.4464 46.34 29.8304 46.256 30.2464 46.256ZM34.064 49.652C34.064 48.98 34.196 48.384 34.46 47.864C34.732 47.344 35.096 46.944 35.552 46.664C36.016 46.384 36.532 46.244 37.1 46.244C37.596 46.244 38.028 46.344 38.396 46.544C38.772 46.744 39.072 46.996 39.296 47.3V46.352H40.988V53H39.296V52.028C39.08 52.34 38.78 52.6 38.396 52.808C38.02 53.008 37.584 53.108 37.088 53.108C36.528 53.108 36.016 52.964 35.552 52.676C35.096 52.388 34.732 51.984 34.46 51.464C34.196 50.936 34.064 50.332 34.064 49.652ZM39.296 49.676C39.296 49.268 39.216 48.92 39.056 48.632C38.896 48.336 38.68 48.112 38.408 47.96C38.136 47.8 37.844 47.72 37.532 47.72C37.22 47.72 36.932 47.796 36.668 47.948C36.404 48.1 36.188 48.324 36.02 48.62C35.86 48.908 35.78 49.252 35.78 49.652C35.78 50.052 35.86 50.404 36.02 50.708C36.188 51.004 36.404 51.232 36.668 51.392C36.94 51.552 37.228 51.632 37.532 51.632C37.844 51.632 38.136 51.556 38.408 51.404C38.68 51.244 38.896 51.02 39.056 50.732C39.216 50.436 39.296 50.084 39.296 49.676ZM45.2328 46.244C45.7288 46.244 46.1648 46.344 46.5408 46.544C46.9168 46.736 47.2128 46.988 47.4288 47.3V46.352H49.1208V53.048C49.1208 53.664 48.9968 54.212 48.7488 54.692C48.5008 55.18 48.1288 55.564 47.6328 55.844C47.1368 56.132 46.5368 56.276 45.8328 56.276C44.8888 56.276 44.1128 56.056 43.5048 55.616C42.9048 55.176 42.5648 54.576 42.4848 53.816H44.1528C44.2408 54.12 44.4288 54.36 44.7168 54.536C45.0128 54.72 45.3688 54.812 45.7848 54.812C46.2728 54.812 46.6688 54.664 46.9728 54.368C47.2768 54.08 47.4288 53.64 47.4288 53.048V52.016C47.2128 52.328 46.9128 52.588 46.5288 52.796C46.1528 53.004 45.7208 53.108 45.2328 53.108C44.6728 53.108 44.1608 52.964 43.6968 52.676C43.2328 52.388 42.8648 51.984 42.5928 51.464C42.3288 50.936 42.1968 50.332 42.1968 49.652C42.1968 48.98 42.3288 48.384 42.5928 47.864C42.8648 47.344 43.2288 46.944 43.6848 46.664C44.1488 46.384 44.6648 46.244 45.2328 46.244ZM47.4288 49.676C47.4288 49.268 47.3488 48.92 47.1888 48.632C47.0288 48.336 46.8128 48.112 46.5408 47.96C46.2688 47.8 45.9768 47.72 45.6648 47.72C45.3528 47.72 45.0648 47.796 44.8008 47.948C44.5368 48.1 44.3208 48.324 44.1528 48.62C43.9928 48.908 43.9128 49.252 43.9128 49.652C43.9128 50.052 43.9928 50.404 44.1528 50.708C44.3208 51.004 44.5368 51.232 44.8008 51.392C45.0728 51.552 45.3608 51.632 45.6648 51.632C45.9768 51.632 46.2688 51.556 46.5408 51.404C46.8128 51.244 47.0288 51.02 47.1888 50.732C47.3488 50.436 47.4288 50.084 47.4288 49.676ZM56.9416 49.532C56.9416 49.772 56.9256 49.988 56.8936 50.18H52.0336C52.0736 50.66 52.2416 51.036 52.5376 51.308C52.8336 51.58 53.1976 51.716 53.6296 51.716C54.2536 51.716 54.6976 51.448 54.9616 50.912H56.7736C56.5816 51.552 56.2136 52.08 55.6696 52.496C55.1256 52.904 54.4576 53.108 53.6656 53.108C53.0256 53.108 52.4496 52.968 51.9376 52.688C51.4336 52.4 51.0376 51.996 50.7496 51.476C50.4696 50.956 50.3296 50.356 50.3296 49.676C50.3296 48.988 50.4696 48.384 50.7496 47.864C51.0296 47.344 51.4216 46.944 51.9256 46.664C52.4296 46.384 53.0096 46.244 53.6656 46.244C54.2976 46.244 54.8616 46.38 55.3576 46.652C55.8616 46.924 56.2496 47.312 56.5216 47.816C56.8016 48.312 56.9416 48.884 56.9416 49.532ZM55.2016 49.052C55.1936 48.62 55.0376 48.276 54.7336 48.02C54.4296 47.756 54.0576 47.624 53.6176 47.624C53.2016 47.624 52.8496 47.752 52.5616 48.008C52.2816 48.256 52.1096 48.604 52.0456 49.052H55.2016ZM59.8478 47.384C60.0638 47.032 60.3438 46.756 60.6878 46.556C61.0398 46.356 61.4398 46.256 61.8878 46.256V48.02H61.4438C60.9158 48.02 60.5158 48.144 60.2438 48.392C59.9798 48.64 59.8478 49.072 59.8478 49.688V53H58.1678V46.352H59.8478V47.384Z" fill="#AFB6C6"/>
</svg>
